<svg
    width="100%"
    height="100%"
    viewBox="0 0 800 800"
    xmlns="http://www.w3.org/2000/svg"
    xmlnsXlink="http://www.w3.org/1999/xlink"
    xmlSpace="preserve"
    xmlns:serif="http://www.serif.com/"
    style={{
      fillRule: "evenodd",
      clipRule: "evenodd",
      strokeLinejoin: "round",
      strokeMiterlimit: 2,
    }}
    {...props}
  >
    <g id="\uD83D\uDD0D-Product-Icons">
      <g id="ic_fluent_gif_24_filled">
        <path
          id="\uD83C\uDFA8-Color"
          d="M625,116.685C684.831,116.685 733.333,165.187 733.333,225.018L733.333,575.104C733.333,634.935 684.831,683.437 625,683.437L175,683.437C115.169,683.437 66.667,634.935 66.667,575.104L66.667,225.018C66.667,165.187 115.169,116.685 175,116.685L625,116.685ZM267.153,295.731C212.946,295.731 175.368,342.722 175.368,399.81C175.368,456.919 212.953,504.009 267.153,504.009C296.746,504.009 323.923,489.773 337.542,463.545L340.082,458.14L340.867,455.818L341.467,453.331L341.721,450.564L341.727,399.873L341.501,396.795C340.179,387.865 333.19,380.782 324.307,379.318L320.894,379.04L287.507,379.04L284.429,379.266C275.499,380.588 268.416,387.577 266.952,396.461L266.674,399.873L266.9,402.952C268.223,411.882 275.212,418.965 284.095,420.428L287.507,420.706L300.035,420.698L300.035,445.165L299.828,445.65C293.536,456.347 281.441,462.343 267.153,462.343C238.291,462.343 217.035,435.71 217.035,399.81C217.035,363.943 238.263,337.398 267.153,337.398C281.2,337.398 289.194,338.938 299.189,343.738C309.561,348.719 322.006,344.348 326.987,333.976C331.968,323.604 327.598,311.158 317.226,306.178C301.118,298.442 287.05,295.731 267.153,295.731ZM420.965,299.798C410.505,299.798 401.845,307.506 400.357,317.553L400.131,320.631L400.131,479.369L400.357,482.447C401.845,492.494 410.505,500.202 420.965,500.202C431.425,500.202 440.084,492.494 441.572,482.447L441.798,479.369L441.798,320.631L441.572,317.553C440.084,307.506 431.425,299.798 420.965,299.798ZM587.405,300.028L520.825,299.798C510.365,299.762 501.679,307.44 500.156,317.481L499.92,320.559L499.92,478.832L500.146,481.911C501.469,490.841 508.458,497.924 517.341,499.388L520.753,499.666L523.832,499.44C532.762,498.117 539.845,491.128 541.308,482.245L541.587,478.832L541.568,441.665L579,441.68L582.079,441.454C591.009,440.131 598.091,433.142 599.555,424.259L599.833,420.847L599.607,417.768C598.285,408.838 591.296,401.755 582.413,400.292L579,400.013L541.568,399.998L541.568,341.498L587.261,341.694L590.341,341.479C600.392,340.026 608.13,331.393 608.167,320.933C608.203,310.473 600.524,301.787 590.483,300.264L587.405,300.028L520.825,299.798L587.405,300.028Z"
          style={{
            fill: "rgb(154,205,50)",
            fillRule: "nonzero",
          }}
        />
      </g>
    </g>
  </svg>