<?xml version="1.0" encoding="UTF-8" standalone="no"?>
<!DOCTYPE svg PUBLIC "-//W3C//DTD SVG 1.1//EN" "http://www.w3.org/Graphics/SVG/1.1/DTD/svg11.dtd">
<svg width="100%" height="100%" viewBox="0 0 800 800" version="1.1" xmlns="http://www.w3.org/2000/svg" xmlns:xlink="http://www.w3.org/1999/xlink" xml:space="preserve" xmlns:serif="http://www.serif.com/" style="fill-rule:evenodd;clip-rule:evenodd;stroke-linejoin:round;stroke-miterlimit:2;">
    <g transform="matrix(1,0,0,1,-9257.14,-4571.43)">
        <g id="Page-1">
            <g id="Dribbble-Light-Preview">
                <g id="icons">
                    <path id="search_left---1504-" serif:id="search_left-[#1504]" d="M10057.1,5298.51L10000.6,5352.38L9830.86,5190.78L9887.42,5136.88L10057.1,5298.51ZM9577.14,5123.81C9444.82,5123.81 9337.14,5021.3 9337.14,4895.24C9337.14,4769.22 9444.82,4666.67 9577.14,4666.67C9709.46,4666.67 9817.14,4769.22 9817.14,4895.24C9817.14,5021.3 9709.46,5123.81 9577.14,5123.81ZM9577.14,4590.48C9400.42,4590.48 9257.14,4726.93 9257.14,4895.24C9257.14,5063.54 9400.42,5200 9577.14,5200C9753.86,5200 9897.14,5063.54 9897.14,4895.24C9897.14,4726.93 9753.86,4590.48 9577.14,4590.48Z" style="fill:rgb(154,205,50);"/>
                </g>
            </g>
        </g>
    </g>
</svg>
